<svg width="180" height="36" viewBox="0 0 180 36" fill="none" xmlns="http://www.w3.org/2000/svg">
<path d="M5.76 14.48L4.76 13.48H0.76V10.04H5.76V4.2H9.88V10.04H18.28V13.48H10.84L9.84 14.48V19.12C9.84 22.04 10.92 23.88 13.72 23.88C16.2 23.88 17.64 22.56 19.36 20.28L21.8 23.08C19.84 25.84 16.88 27.56 13.68 27.56C9.04 27.56 5.76 25.16 5.76 19.68V14.48ZM31.6503 6.88C29.7703 6.88 28.2903 5.4 28.2903 3.52C28.2903 1.52 29.7703 0.039999 31.6503 0.039999C33.6503 0.039999 35.1303 1.52 35.1303 3.52C35.1303 5.4 33.6503 6.88 31.6503 6.88ZM34.2503 22.6L35.2903 23.64H40.8103V27H22.8903V23.64H29.6103L30.6503 22.6V14.44L29.6103 13.4H22.8903V10.04H34.2503V22.6ZM63.4206 27H59.4606V15.52C59.4606 14.44 59.3406 13.36 58.2206 13.36C57.0206 13.36 56.1006 15.08 54.9406 17.08V27H50.9806V15.52C50.9806 14.44 50.8606 13.36 49.7406 13.36C48.5406 13.36 47.6206 15.08 46.4606 17.08V27H42.5006V10.04H46.4606V11.96H47.1406C48.1406 10.68 49.3406 9.48 51.2606 9.48C52.9406 9.48 54.0206 10.52 54.5806 11.96H55.3406C56.3406 10.68 57.6206 9.48 59.5406 9.48C61.9806 9.48 63.4206 11.52 63.4206 14.12V27ZM83.6309 24.12C80.6709 26.48 77.7509 27.56 74.8309 27.56C68.7909 27.56 64.6709 23.64 64.6709 18.52C64.6709 13.4 68.7909 9.48 74.3509 9.48C81.1109 9.48 84.1909 14.8 84.1909 19.92H69.7109L68.9109 20.48C69.6709 22.32 71.5509 23.88 74.8309 23.88C77.2709 23.88 79.3909 23.08 81.6309 21.4L83.6309 24.12ZM69.7109 16.76H78.9909L79.3509 15.92C78.5109 14.36 76.6709 13.12 74.3509 13.12C72.0709 13.12 69.9109 14.2 68.9909 16.24L69.7109 16.76ZM88.4413 14.48L87.4413 13.48H83.4413V10.04H88.4413V4.2H92.5613V10.04H100.961V13.48H93.5213L92.5213 14.48V19.12C92.5213 22.04 93.6013 23.88 96.4013 23.88C98.8813 23.88 100.321 22.56 102.041 20.28L104.481 23.08C102.521 25.84 99.5613 27.56 96.3613 27.56C91.7213 27.56 88.4413 25.16 88.4413 19.68V14.48ZM109.332 17.76V27H105.252V2.48H109.332V11.96H110.292C111.612 10.48 113.532 9.48 115.772 9.48C119.772 9.48 122.652 11.92 122.652 16.44V27H118.572V17.32C118.572 14.96 117.812 13.2 115.172 13.2C112.772 13.2 110.892 15.36 109.332 17.76ZM132.502 6.88C130.622 6.88 129.142 5.4 129.142 3.52C129.142 1.52 130.622 0.039999 132.502 0.039999C134.502 0.039999 135.982 1.52 135.982 3.52C135.982 5.4 134.502 6.88 132.502 6.88ZM135.102 22.6L136.142 23.64H141.662V27H123.742V23.64H130.462L131.502 22.6V14.44L130.462 13.4H123.742V10.04H135.102V22.6ZM146.472 17.76V27H142.392V10.04H146.472V11.96H147.432C148.752 10.48 150.672 9.48 152.912 9.48C156.912 9.48 159.792 11.92 159.792 16.44V27H155.712V17.32C155.712 14.96 154.952 13.2 152.312 13.2C149.912 13.2 148.032 15.36 146.472 17.76ZM175.642 25.44H174.682C173.682 26.52 171.642 27.56 169.202 27.56C164.082 27.56 160.442 23.56 160.442 18.52C160.442 13.48 164.082 9.48 169.202 9.48C171.642 9.48 173.682 10.52 174.682 11.6H175.642V10.08H179.722V26C179.722 31.56 175.082 35.08 169.482 35.08C165.482 35.08 162.322 33.8 160.322 31.64L162.762 28.76C164.362 30.48 167.042 31.6 169.482 31.6C173.362 31.6 175.642 29.52 175.642 26.2V25.44ZM169.762 23.92C172.402 23.92 174.282 22.28 175.722 20.24V16.8C174.282 14.76 172.402 13.12 169.762 13.12C166.602 13.12 164.642 15.48 164.642 18.52C164.642 21.56 166.602 23.92 169.762 23.92Z" fill="#FF3434"/>
</svg>
