<svg width="255" height="38" viewBox="0 0 255 38" fill="none" xmlns="http://www.w3.org/2000/svg">
<path d="M22.1456 7.8855H3.4124V26.6549H22.1456V7.8855Z" fill="#FA0D0D"/>
<g filter="url(#filter0_d_1_2)">
<path d="M26.8306 3.18206H8.09741V21.9515H26.8306V3.18206Z" fill="#FA0D0D"/>
</g>
<path d="M63.2609 5.32606L54.6547 23.182H47.7219L38.4701 5.32606H44.7814L51.3317 18.4541L57.4756 5.32606H63.2609ZM74.925 5.01406H75.9529C87.1411 5.01406 88.4559 10.6541 88.4559 13.8461V14.5661C88.4559 17.7101 87.165 23.494 75.9529 23.494H74.925C63.6651 23.494 62.3981 17.7101 62.3981 14.5661V13.8461C62.3981 10.6541 63.6651 5.01406 74.925 5.01406ZM82.6228 14.0141C82.6228 11.9501 81.4275 9.33406 75.427 9.33406C69.3309 9.33406 68.2312 11.9501 68.2312 14.0141V14.3021C68.2312 16.3421 69.4265 19.1501 75.427 19.1501C81.4036 19.1501 82.6228 16.4141 82.6228 14.3501V14.0141ZM95.8836 5.32606V23.182H90.3134V5.32606H95.8836ZM122.559 16.2461C122.559 18.5021 120.813 23.494 110.629 23.494H109.649C99.3456 23.494 97.7439 17.7341 97.7439 14.5421V13.8461C97.7439 10.6061 99.1544 5.01406 109.649 5.01406H110.629C120.957 5.01406 122.511 9.95806 122.535 12.0461V12.3101H116.63C116.486 11.8301 115.793 9.33406 110.127 9.33406C104.796 9.33406 103.577 11.7341 103.577 13.9661V14.2541C103.577 16.3421 104.987 19.1501 110.175 19.1501C115.937 19.1501 116.534 16.3901 116.654 15.9821H122.559V16.2461ZM124.352 5.32606H143.094V9.38206H129.85V12.0221H142.783V16.1021H129.85V19.0301H143.333V23.182H124.352V5.32606ZM145.503 5.32606H151.073V18.7421H163.433V23.182H145.503V5.32606ZM183.675 23.182L182.001 19.9181H171.22L169.618 23.182H163.952L172.941 5.32606H180.161L189.675 23.182H183.675ZM173.204 15.8861H179.946L176.503 9.19006L173.204 15.8861ZM199.882 16.2701V23.182H194.312V16.2701L184.797 5.32606H191.706L197.228 11.9021L202.847 5.32606H209.134L199.882 16.2701ZM209.821 5.32606H228.564V9.38206H215.32V12.0221H228.253V16.1021H215.32V19.0301H228.803V23.182H209.821V5.32606ZM236.542 16.8461V23.182H230.972V5.32606H245.316C251.245 5.32606 253.038 7.39006 253.038 9.95806V10.2461C253.038 12.7901 250.91 13.7981 249.739 14.1581C251.556 14.6381 253.109 15.9821 253.109 18.2621V20.878C253.109 22.318 253.301 22.774 253.444 23.062V23.182H247.778C247.611 22.966 247.515 22.678 247.515 22.054V19.9901C247.515 17.8061 246.559 16.8461 243.81 16.8461H236.542ZM236.542 9.38206V12.8861H244.981C246.559 12.8861 247.228 12.1181 247.228 11.1341V11.1101C247.228 10.1741 246.607 9.38206 244.981 9.38206H236.542Z" fill="#EFEFEF"/>
<defs>
<filter id="filter0_d_1_2" x="4.09741" y="3.18206" width="26.7332" height="26.7694" filterUnits="userSpaceOnUse" color-interpolation-filters="sRGB">
<feFlood flood-opacity="0" result="BackgroundImageFix"/>
<feColorMatrix in="SourceAlpha" type="matrix" values="0 0 0 0 0 0 0 0 0 0 0 0 0 0 0 0 0 0 127 0" result="hardAlpha"/>
<feOffset dy="4"/>
<feGaussianBlur stdDeviation="2"/>
<feComposite in2="hardAlpha" operator="out"/>
<feColorMatrix type="matrix" values="0 0 0 0 0 0 0 0 0 0 0 0 0 0 0 0 0 0 0.25 0"/>
<feBlend mode="normal" in2="BackgroundImageFix" result="effect1_dropShadow_1_2"/>
<feBlend mode="normal" in="SourceGraphic" in2="effect1_dropShadow_1_2" result="shape"/>
</filter>
</defs>
</svg>
